<?xml version="1.0" standalone="no"?>
<!DOCTYPE svg PUBLIC "-//W3C//DTD SVG 20010904//EN"
 "http://www.w3.org/TR/2001/REC-SVG-20010904/DTD/svg10.dtd">
<svg version="1.0" xmlns="http://www.w3.org/2000/svg"
 width="600.000000pt" height="600.000000pt" viewBox="0 0 600.000000 600.000000"
 preserveAspectRatio="xMidYMid meet">
<metadata>
Created by potrace 1.11, written by Peter Selinger 2001-2013
</metadata>
<g transform="translate(0.000000,600.000000) scale(0.100000,-0.100000)"
fill="#000000" stroke="none">
<path d="M4760 4846 c-99 -28 -175 -84 -277 -205 -31 -36 -71 -84 -91 -105
l-35 -39 -56 31 c-123 67 -229 78 -358 37 -108 -34 -222 -104 -398 -247 -195
-157 -252 -193 -469 -299 -205 -99 -278 -129 -667 -274 -367 -137 -573 -203
-814 -260 -110 -26 -263 -63 -340 -81 -237 -57 -362 -137 -429 -277 -19 -40
-37 -89 -41 -110 -8 -50 10 -41 20 10 18 97 107 211 209 268 73 40 133 57 326
90 346 60 614 138 1089 317 377 141 495 190 676 281 194 96 262 139 384 243
288 244 460 334 617 321 61 -4 178 -50 201 -78 9 -11 -5 -32 -67 -103 -67 -77
-82 -90 -111 -91 -19 -1 -49 -8 -68 -15 -44 -17 -216 -104 -261 -133 -20 -12
-60 -38 -90 -57 -30 -19 -58 -33 -62 -32 -5 1 -8 -3 -8 -8 0 -6 -7 -10 -15
-10 -8 0 -15 -4 -15 -10 0 -5 -4 -10 -9 -10 -5 0 -49 -26 -98 -58 -200 -132
-412 -247 -638 -346 -132 -58 -439 -173 -550 -206 -44 -13 -89 -30 -100 -37
-18 -12 -17 -13 14 -13 60 0 152 -31 240 -80 103 -58 201 -93 237 -84 14 4 32
17 41 30 14 22 63 213 66 261 1 12 4 20 6 18 2 -3 16 13 31 34 38 51 79 80
132 89 50 10 177 -1 207 -18 58 -30 160 -54 238 -55 72 0 84 3 107 24 35 33
44 67 55 201 14 158 32 215 87 267 51 48 87 58 178 50 41 -4 81 -16 120 -36
64 -34 126 -41 146 -15 8 8 19 54 26 101 l13 87 61 60 60 61 111 5 111 5 49
53 c27 29 52 65 55 80 11 47 32 72 62 72 47 0 55 -12 50 -77 -7 -98 -64 -186
-157 -241 -37 -22 -60 -27 -135 -30 -50 -2 -99 -8 -108 -13 -20 -11 -38 -68
-38 -124 -1 -107 -100 -205 -209 -205 -13 0 -70 16 -127 36 -57 19 -116 34
-131 32 -41 -5 -61 -55 -79 -200 -8 -67 -21 -143 -29 -168 -21 -62 -67 -115
-129 -148 -45 -24 -61 -26 -146 -26 -82 1 -112 7 -225 43 -143 45 -163 48
-204 26 -36 -18 -57 -63 -81 -174 -38 -181 -98 -244 -230 -244 -79 0 -111 10
-260 80 -133 63 -201 83 -282 83 -138 0 -220 -87 -234 -246 -11 -139 -47 -188
-169 -234 -41 -16 -84 -23 -135 -24 -94 -1 -134 20 -260 140 -100 94 -119 101
-197 63 -61 -30 -114 -95 -178 -221 -48 -93 -60 -109 -78 -106 -17 2 -23 11
-25 40 -5 54 23 153 63 225 19 35 31 63 27 63 -24 0 -138 -48 -220 -93 -157
-86 -220 -164 -257 -322 -69 -291 103 -557 417 -645 77 -22 264 -37 322 -26
33 6 34 7 25 44 -14 59 -10 189 7 255 25 96 57 149 131 214 266 236 433 302
1023 408 378 68 552 115 830 227 170 68 482 221 610 298 199 120 519 379 810
656 237 225 341 281 509 272 107 -5 142 -25 191 -107 75 -125 110 -267 110
-440 0 -490 -304 -988 -835 -1372 -199 -143 -393 -256 -665 -388 -537 -258
-945 -383 -1495 -458 -187 -26 -641 -26 -772 0 -239 47 -423 145 -585 315 -76
78 -89 77 -27 -4 129 -167 388 -306 649 -349 270 -44 723 -25 1090 46 573 110
1204 372 1720 714 179 119 287 204 417 329 348 332 553 767 553 1172 0 196
-40 343 -131 484 -37 58 -38 61 -29 111 65 342 -157 623 -488 618 -37 0 -87
-6 -112 -13z"/>
<path d="M1850 3254 c-53 -16 -310 -74 -460 -104 -128 -26 -235 -69 -286 -116
-24 -21 -31 -33 -19 -28 11 4 43 15 70 25 28 10 62 18 77 19 29 0 119 -28 128
-39 3 -4 42 -41 87 -83 94 -87 125 -100 204 -86 110 18 114 23 125 140 8 82
30 153 65 204 16 23 25 45 21 49 -4 5 -2 5 4 2 11 -6 42 19 33 27 -2 2 -24 -3
-49 -10z"/>
</g>
</svg>
